<?xml version="1.0" standalone="no"?><!DOCTYPE svg PUBLIC "-//W3C//DTD SVG 1.1//EN" "http://www.w3.org/Graphics/SVG/1.1/DTD/svg11.dtd"><svg class="icon" width="200px" height="200.00px" viewBox="0 0 1024 1024" version="1.1" xmlns="http://www.w3.org/2000/svg"><path fill="#111111" d="M712.106667 525.653333l-291.413334 247.893334a21.333333 21.333333 0 0 1-14.506666 5.546666 20.053333 20.053333 0 0 1-22.186667-19.2V264.106667a20.053333 20.053333 0 0 1 20.906667-19.2 20.906667 20.906667 0 0 1 14.506666 5.546666l291.413334 247.893334a17.92 17.92 0 0 1 1.28 27.306666zM512 0a512 512 0 1 0 512 512A512 512 0 0 0 512 0z"  /></svg>